<?xml version="1.0" encoding="utf-8"?>
<!-- Svg Vector Icons : http://www.onlinewebfonts.com/icon -->
<!DOCTYPE svg PUBLIC "-//W3C//DTD SVG 1.1//EN" "http://www.w3.org/Graphics/SVG/1.1/DTD/svg11.dtd">
<svg version="1.1" xmlns="http://www.w3.org/2000/svg" xmlns:xlink="http://www.w3.org/1999/xlink" x="0px" y="0px" viewBox="0 0 1000 1000" enable-background="new 0 0 1000 1000" xml:space="preserve">
<metadata> Svg Vector Icons : http://www.onlinewebfonts.com/icon </metadata>
<g><g transform="translate(0.000000,511.000000) scale(0.100000,-0.100000)"><path d="M4683.9,4556.8c-263-74.2-358.5-146.4-1472.1-1122.1C1109.7,1593.5,634.6,1160.8,469.1,925.3C341.8,749.2,218.8,477.7,153,238C104.2,55.6,100,0.4,100-389.9c0-396.7,10.6-477.3,53-407.3c23.3,36.1,712.7,619.4,1113.6,944C2613.6,1230.8,3723,1928.6,4493,2174.7c197.3,61.5,246.1,70,464.5,70c280-2.1,430.6-38.2,801.8-193C6639.7,1682.6,8050.3,683.5,9427-548.9c154.8-137.9,288.5-250.3,301.2-250.3c31.8,0,65.7,250.3,80.6,579.1c10.6,265.1,6.4,322.4-33.9,481.5c-101.8,400.9-275.8,659.7-806.1,1187.9c-617.3,615.1-1875.1,1779.7-2537,2346.1c-770,659.7-969.4,772.1-1400,784.8C4868.5,4586.5,4764.5,4578,4683.9,4556.8z"/><path d="M4703,1012.3c-326.7-87-587.6-275.8-1463.6-1047.9C2518.2-672,1186.1-1917.1,831.8-2286.2C503-2629.9,310-2945.9,225.2-3281.1c-40.3-159.1-44.6-216.4-33.9-487.9c14.9-335.2,48.8-572.7,82.7-572.7c12.7,0,80.6,55.1,152.7,123c207.9,195.2,736.1,642.7,1126.4,958.8c1612.1,1298.2,2806.4,1972.7,3495.8,1972.7c574.9,0,1593-530.3,2923-1520.9c589.7-437,1820-1444.5,1875.2-1531.5c42.4-70,53,10.6,53,407.3c0,390.3-4.2,445.4-53,627.9c-65.8,239.7-188.8,511.2-316.1,687.3C9369.7-2388,8807.6-1874.7,6699.1-29.2C5668.2,872.3,5572.7,944.4,5305.5,1014.4C5150.6,1054.7,4857.9,1052.6,4703,1012.3z"/></g></g>
</svg>